<?xml version="1.0" encoding="utf-8"?>
<svg xmlns="http://www.w3.org/2000/svg" xmlns:xlink="http://www.w3.org/1999/xlink" width="1921" zoomAndPan="magnify" viewBox="0 0 1440.75 592.499982" height="790" preserveAspectRatio="xMidYMid meet" version="1.0">
  <defs>
    <clipPath id="2c21f47474">
      <path clip-rule="nonzero" d="M 0.484375 0 L 1440.019531 0 L 1440.019531 592 L 0.484375 592 Z M 0.484375 0"/>
    </clipPath>
  </defs>
  <g clip-path="url(#2c21f47474)">
    <path fill="#ffffff" fill-opacity="1" fill-rule="nonzero" d="M 0.484375 0 L 1440.019531 0 L 1440.019531 592 L 0.484375 592 Z M 0.484375 0"/>
    <path fill="#590000" fill-opacity="1" fill-rule="nonzero" d="M 0.484375 0 L 1440.019531 0 L 1440.019531 592 L 0.484375 592 Z M 0.484375 0"/>
  </g>
  <path fill="#ffffff" fill-opacity="1" fill-rule="nonzero" d="M 311.898438 275.066406 C 311.898438 275.519531 311.449219 276.097656 310.542969 276.746094 L 282.621094 295.894531 C 281.972656 296.285156 281.328125 296.480469 280.746094 296.480469 C 280.03125 296.480469 279.453125 296.222656 278.871094 295.769531 C 278.09375 295.125 277.640625 294.351562 277.636719 293.378906 C 277.636719 292.992188 277.703125 292.605469 277.832031 292.152344 L 284.929688 273.023438 C 285.640625 271.664062 286.609375 270.953125 287.902344 270.953125 L 308.792969 270.933594 C 309.828125 270.933594 310.667969 271.320312 311.183594 272.027344 C 311.703125 272.675781 311.960938 273.386719 311.964844 274.226562 C 311.964844 274.289062 311.964844 274.546875 311.898438 275.066406 Z M 306.039062 306.148438 L 300.660156 316.773438 C 300.015625 318.132812 299.046875 318.84375 297.6875 318.84375 L 271.105469 318.867188 C 270.070312 318.867188 269.164062 318.417969 268.515625 317.511719 C 268.128906 316.996094 273.507812 303.980469 273.507812 303.980469 C 274.15625 302.625 275.1875 301.910156 276.480469 301.910156 L 303.0625 301.886719 C 304.160156 301.886719 305.003906 302.335938 305.652344 303.175781 C 306.039062 303.691406 306.234375 304.339844 306.234375 304.984375 C 306.234375 305.371094 306.171875 305.757812 306.039062 306.148438 Z M 360.835938 249.695312 C 360.832031 248.53125 360.25 247.628906 359.148438 246.917969 L 358.375 246.53125 C 357.921875 246.273438 357.402344 246.144531 356.886719 246.144531 L 263.757812 246.230469 C 263.238281 246.230469 262.785156 246.359375 262.269531 246.617188 L 260.070312 247.78125 C 259.425781 248.171875 258.90625 248.753906 258.585938 249.464844 L 227.875 332.835938 C 227.746094 333.222656 227.746094 333.613281 227.75 334 C 227.75 335.097656 228.265625 336.003906 229.367188 336.710938 L 230.144531 337.097656 C 230.660156 337.355469 231.113281 337.484375 231.632812 337.484375 L 324.761719 337.402344 C 325.277344 337.402344 325.792969 337.269531 326.246094 337.011719 L 328.378906 335.914062 C 329.089844 335.523438 329.609375 334.941406 329.867188 334.230469 L 340.769531 304.566406 C 340.898438 304.179688 340.964844 303.855469 340.964844 303.53125 C 340.964844 302.820312 340.769531 302.242188 340.3125 301.59375 L 333.320312 292.105469 C 332.933594 291.457031 332.738281 290.8125 332.738281 290.164062 C 332.738281 289.261719 333.1875 288.421875 334.09375 287.644531 L 350.574219 276.324219 C 351.15625 275.933594 351.542969 275.417969 351.738281 274.773438 L 360.640625 250.859375 C 360.769531 250.46875 360.835938 250.082031 360.835938 249.695312 Z M 360.835938 249.695312"/>
  <path fill="#ffffff" fill-opacity="1" fill-rule="nonzero" d="M 487.21875 246.804688 L 486.378906 246.351562 C 485.988281 246.160156 485.472656 246.03125 484.957031 246.03125 L 391.761719 246.113281 C 391.308594 246.113281 390.855469 246.242188 390.339844 246.4375 L 387.105469 248.1875 C 381.75 262.726562 376.398438 277.269531 370.976562 291.8125 C 365.945312 305.449219 360.914062 319.085938 355.878906 332.722656 C 355.75 333.109375 355.75 333.496094 355.753906 333.886719 C 355.753906 334.984375 356.269531 335.824219 357.371094 336.535156 L 358.210938 336.984375 C 358.730469 337.242188 359.183594 337.371094 359.632812 337.371094 L 452.828125 337.289062 C 453.347656 337.289062 453.800781 337.15625 454.25 336.898438 L 456.449219 335.734375 C 457.160156 335.410156 457.675781 334.828125 457.9375 334.117188 L 464.128906 317.183594 C 464.257812 316.796875 464.324219 316.410156 464.324219 316.023438 C 464.320312 314.921875 463.804688 314.019531 462.703125 313.375 L 461.796875 312.921875 C 461.410156 312.664062 460.890625 312.535156 460.375 312.535156 L 431.140625 312.5625 C 421.828125 312.507812 412.449219 312.515625 402.945312 312.523438 C 401.910156 312.457031 401.066406 312.007812 400.417969 311.167969 C 400.03125 310.652344 399.835938 310.070312 399.835938 309.421875 C 399.835938 309.101562 399.902344 308.714844 400.03125 308.324219 L 401.773438 303.671875 C 402.417969 302.3125 403.386719 301.667969 404.679688 301.667969 L 434.882812 301.640625 C 435.464844 301.640625 435.984375 301.511719 436.433594 301.1875 L 468.882812 282.679688 C 469.789062 282.097656 470.304688 281.386719 470.371094 280.480469 C 470.433594 280.285156 470.433594 280.160156 470.433594 279.964844 C 470.433594 279.253906 470.171875 278.609375 469.65625 277.898438 C 469.203125 277.25 468.425781 276.929688 467.328125 276.929688 L 416.171875 276.976562 C 415.132812 276.976562 414.292969 276.527344 413.648438 275.6875 C 413.257812 275.167969 413.0625 274.523438 413.0625 273.941406 C 413.0625 273.554688 413.128906 273.167969 413.257812 272.777344 C 413.902344 271.421875 414.871094 270.773438 416.164062 270.773438 L 477.410156 270.71875 C 477.925781 270.71875 478.445312 270.589844 478.898438 270.328125 L 481.03125 269.164062 C 481.742188 268.777344 482.191406 268.257812 482.453125 267.546875 L 488.710938 250.617188 C 488.839844 250.226562 488.902344 249.839844 488.902344 249.453125 C 488.902344 248.355469 488.320312 247.515625 487.21875 246.804688 Z M 487.21875 246.804688"/>
  <path fill="#ffffff" fill-opacity="1" fill-rule="nonzero" d="M 613.285156 246.5625 L 612.769531 246.304688 C 612.25 246.046875 611.730469 245.917969 611.214844 245.917969 L 518.214844 246 C 517.632812 246 517.113281 246.128906 516.597656 246.390625 L 514.527344 247.488281 C 513.753906 247.878906 513.238281 248.460938 512.980469 249.234375 L 506.851562 265.910156 C 506.71875 266.363281 506.65625 266.75 506.65625 267.136719 C 506.65625 268.300781 507.242188 269.269531 508.40625 269.980469 L 508.988281 270.300781 C 509.507812 270.558594 510.023438 270.6875 510.539062 270.6875 L 533.757812 270.667969 C 534.921875 270.667969 535.828125 271.117188 536.476562 272.085938 C 536.863281 272.667969 537.125 273.3125 537.125 274.023438 C 537.125 274.410156 537.058594 274.800781 536.933594 275.1875 L 515.769531 332.382812 C 515.640625 332.773438 515.574219 333.160156 515.574219 333.546875 C 515.578125 334.777344 516.160156 335.746094 517.390625 336.519531 L 518.039062 336.839844 C 518.488281 337.097656 519.007812 337.230469 519.589844 337.226562 L 544.941406 337.207031 C 545.460938 337.203125 545.976562 337.074219 546.492188 336.816406 L 548.5625 335.714844 C 549.273438 335.261719 549.789062 334.679688 550.113281 333.90625 L 572.628906 272.828125 C 573.273438 271.34375 574.308594 270.628906 575.730469 270.628906 L 603.539062 270.605469 C 604.058594 270.605469 604.574219 270.476562 605.09375 270.214844 L 607.160156 269.117188 C 607.871094 268.726562 608.386719 268.144531 608.710938 267.304688 L 614.90625 250.628906 C 615.035156 250.242188 615.035156 249.855469 615.035156 249.46875 C 615.03125 248.304688 614.449219 247.335938 613.285156 246.5625 Z M 613.285156 246.5625"/>
  <path fill="#ffffff" fill-opacity="1" fill-rule="nonzero" d="M 734.117188 275.65625 C 734.054688 276.300781 733.472656 276.949219 732.308594 277.660156 L 700.765625 296.101562 C 700.054688 296.425781 699.40625 296.621094 698.761719 296.621094 C 697.917969 296.621094 697.078125 296.300781 696.367188 295.71875 C 695.460938 294.941406 695.007812 293.976562 695.003906 292.8125 C 695.003906 292.425781 695.070312 291.972656 695.199219 291.453125 L 702.039062 273.097656 C 702.8125 271.417969 704.039062 270.578125 705.59375 270.578125 L 730.363281 270.554688 C 731.65625 270.554688 732.691406 271.003906 733.335938 271.910156 C 733.921875 272.683594 734.246094 273.523438 734.246094 274.429688 C 734.246094 274.621094 734.183594 275.011719 734.117188 275.65625 Z M 777.683594 249.578125 C 777.683594 248.15625 776.972656 247.058594 775.613281 246.222656 L 775.546875 246.222656 C 775.03125 245.898438 774.449219 245.769531 773.800781 245.769531 L 680.996094 245.851562 C 680.347656 245.855469 679.765625 245.984375 679.183594 246.308594 L 677.371094 247.277344 C 676.53125 247.730469 675.949219 248.441406 675.5625 249.347656 L 645.113281 331.878906 C 644.984375 332.398438 644.917969 332.851562 644.917969 333.238281 C 644.921875 334.660156 645.632812 335.757812 646.925781 336.597656 L 647.054688 336.660156 C 647.703125 336.980469 648.285156 337.113281 648.867188 337.109375 L 674.414062 337.089844 C 675.0625 337.089844 675.644531 336.957031 676.160156 336.632812 L 677.839844 335.792969 C 678.746094 335.339844 679.328125 334.628906 679.648438 333.722656 L 690.617188 303.992188 C 691.390625 302.3125 692.621094 301.472656 694.171875 301.46875 L 754.769531 301.417969 C 755.417969 301.414062 756 301.285156 756.582031 300.960938 L 758.195312 300.054688 C 759.101562 299.605469 759.683594 298.957031 760.007812 298.050781 L 777.425781 250.9375 C 777.621094 250.417969 777.683594 249.964844 777.683594 249.578125 Z M 777.683594 249.578125"/>
  <path fill="#ffffff" fill-opacity="1" fill-rule="nonzero" d="M 861.28125 275.542969 L 848.636719 309.730469 C 847.859375 311.410156 846.699219 312.25 845.082031 312.253906 L 820.632812 312.273438 C 819.339844 312.277344 818.304688 311.761719 817.53125 310.664062 C 817.074219 310.015625 816.878906 309.242188 816.878906 308.53125 C 816.878906 308.078125 816.945312 307.5625 817.074219 307.109375 L 829.71875 272.921875 C 830.492188 271.238281 831.722656 270.398438 833.273438 270.398438 L 857.71875 270.375 C 859.011719 270.375 860.046875 270.890625 860.824219 271.988281 C 861.34375 272.632812 861.539062 273.410156 861.539062 274.117188 C 861.539062 274.570312 861.476562 275.089844 861.28125 275.542969 Z M 905.625 249.398438 C 905.621094 248.042969 904.910156 246.945312 903.550781 246.105469 C 902.96875 245.785156 902.386719 245.65625 901.742188 245.65625 L 808.933594 245.738281 C 808.351562 245.738281 807.769531 245.867188 807.125 246.191406 L 805.3125 247.164062 C 804.539062 247.617188 803.890625 248.261719 803.503906 249.167969 L 773.054688 331.765625 C 772.925781 332.28125 772.859375 332.734375 772.859375 333.25 C 772.863281 334.542969 773.507812 335.640625 774.804688 336.480469 L 774.933594 336.542969 C 775.582031 336.867188 776.160156 336.996094 776.742188 336.996094 L 869.546875 336.914062 C 870.195312 336.914062 870.777344 336.78125 871.296875 336.457031 L 872.976562 335.617188 C 873.882812 335.164062 874.464844 334.453125 874.785156 333.546875 L 905.367188 250.820312 C 905.558594 250.304688 905.625 249.851562 905.625 249.398438 Z M 905.625 249.398438"/>
  <path fill="#ffffff" fill-opacity="1" fill-rule="nonzero" d="M 1033.628906 249.351562 C 1033.625 247.992188 1032.980469 246.960938 1031.683594 246.121094 L 1031.488281 245.992188 C 1030.90625 245.671875 1030.324219 245.542969 1029.742188 245.542969 L 1004.195312 245.566406 C 1003.617188 245.566406 1003.035156 245.695312 1002.515625 246.019531 L 1000.578125 246.988281 C 999.738281 247.441406 999.15625 248.152344 998.832031 248.996094 L 986.703125 281.890625 C 985.929688 283.507812 984.828125 284.285156 983.277344 284.285156 C 983.214844 284.285156 982.824219 284.285156 981.984375 284.285156 C 981.144531 284.289062 980.367188 283.449219 979.65625 281.703125 L 968.757812 248.183594 C 967.980469 246.4375 966.816406 245.601562 965.199219 245.601562 L 936.871094 245.625 C 936.289062 245.625 935.707031 245.753906 935.125 246.078125 L 933.253906 247.050781 C 932.410156 247.503906 931.828125 248.214844 931.507812 249.054688 L 900.992188 331.714844 C 900.863281 332.234375 900.796875 332.6875 900.796875 333.074219 C 900.800781 334.429688 901.445312 335.464844 902.738281 336.304688 L 903 336.433594 C 903.582031 336.753906 904.167969 336.882812 904.746094 336.882812 L 930.164062 336.859375 C 930.746094 336.859375 931.328125 336.730469 931.90625 336.40625 L 933.71875 335.4375 C 934.558594 334.980469 935.140625 334.335938 935.464844 333.429688 L 947.011719 302.214844 C 947.722656 300.597656 948.820312 299.820312 950.4375 299.753906 C 951.988281 299.753906 953.15625 300.53125 953.933594 302.078125 L 967.285156 334.371094 C 968.0625 335.988281 969.226562 336.824219 970.777344 336.824219 L 997.550781 336.800781 C 998.132812 336.800781 998.714844 336.667969 999.296875 336.34375 L 1001.175781 335.375 C 1002.011719 334.921875 1002.59375 334.277344 1002.917969 333.371094 L 1033.433594 250.707031 C 1033.5625 250.191406 1033.628906 249.738281 1033.628906 249.351562 Z M 1033.628906 249.351562"/>
  <path fill="#ffffff" fill-opacity="1" fill-rule="nonzero" d="M 1161.828125 248.914062 C 1161.824219 247.816406 1161.308594 246.910156 1160.207031 246.199219 L 1159.429688 245.75 C 1158.914062 245.554688 1158.460938 245.425781 1157.945312 245.425781 L 1064.8125 245.511719 C 1064.296875 245.511719 1063.777344 245.640625 1063.328125 245.835938 L 1061.128906 247 C 1060.417969 247.386719 1059.902344 247.96875 1059.640625 248.679688 L 1028.867188 332.054688 C 1028.738281 332.441406 1028.675781 332.832031 1028.675781 333.21875 C 1028.675781 334.378906 1029.195312 335.285156 1030.359375 335.992188 L 1031.136719 336.378906 C 1031.589844 336.640625 1032.105469 336.769531 1032.625 336.769531 L 1125.753906 336.683594 C 1126.269531 336.683594 1126.722656 336.554688 1127.238281 336.296875 L 1129.375 335.128906 C 1130.019531 334.742188 1130.535156 334.160156 1130.859375 333.449219 L 1140.988281 305.65625 C 1141.050781 305.269531 1141.117188 304.882812 1141.117188 304.558594 C 1141.113281 303.394531 1140.53125 302.492188 1139.433594 301.785156 L 1138.65625 301.394531 C 1138.136719 301.136719 1137.6875 301.007812 1137.167969 301.007812 L 1112.527344 301.097656 C 1112.007812 301.097656 1111.492188 301.226562 1111.039062 301.484375 L 1108.84375 302.648438 C 1108.132812 303.039062 1107.613281 303.621094 1107.355469 304.332031 L 1105.355469 309.890625 C 1104.710938 311.246094 1103.675781 311.957031 1102.382812 311.960938 L 1075.671875 311.984375 C 1074.507812 311.984375 1073.667969 311.53125 1073.085938 310.695312 C 1072.695312 310.113281 1072.5 309.53125 1072.5 308.886719 C 1072.5 308.496094 1072.566406 308.109375 1072.695312 307.722656 L 1085.855469 272.238281 C 1086.503906 270.882812 1087.46875 270.171875 1088.828125 270.167969 L 1115.539062 270.144531 C 1116.574219 270.144531 1117.480469 270.597656 1118.128906 271.5 C 1118.515625 272.015625 1118.644531 272.664062 1118.644531 273.246094 C 1118.644531 273.632812 1118.644531 274.019531 1118.515625 274.40625 L 1115.808594 281.582031 C 1115.679688 281.96875 1115.613281 282.355469 1115.617188 282.742188 C 1115.617188 283.582031 1115.941406 284.359375 1116.652344 285.003906 C 1117.234375 285.585938 1117.882812 285.84375 1118.65625 285.84375 C 1119.109375 285.84375 1119.5625 285.777344 1120.082031 285.582031 C 1132.621094 279.953125 1143.613281 275.03125 1153.050781 270.695312 C 1153.828125 270.304688 1154.410156 269.722656 1154.730469 268.949219 L 1161.699219 250.074219 C 1161.761719 249.6875 1161.828125 249.300781 1161.828125 248.914062 Z M 1161.828125 248.914062"/>
  <path fill="#ffffff" fill-opacity="1" fill-rule="nonzero" d="M 1289.835938 248.796875 C 1289.835938 247.699219 1289.308594 246.796875 1288.207031 246.085938 L 1287.433594 245.632812 C 1286.917969 245.441406 1286.464844 245.3125 1285.949219 245.3125 L 1260.402344 245.335938 C 1259.890625 245.335938 1259.363281 245.464844 1258.917969 245.660156 L 1256.714844 246.824219 C 1256.003906 247.210938 1255.558594 247.792969 1255.300781 248.503906 L 1245.417969 275.199219 C 1245.164062 275.910156 1244.71875 276.425781 1244.0625 276.816406 L 1212.371094 276.84375 C 1212.371094 276.84375 1217.007812 263.757812 1219.148438 257.96875 C 1220.25 254.804688 1221.210938 252.15625 1222.054688 249.957031 C 1222.125 249.570312 1222.183594 249.183594 1222.183594 248.792969 C 1222.183594 247.695312 1221.667969 246.855469 1220.566406 246.144531 L 1190.550781 246.171875 L 1189.136719 246.886719 C 1188.421875 247.273438 1187.90625 247.855469 1187.648438 248.566406 L 1156.9375 331.941406 C 1156.808594 332.328125 1156.742188 332.714844 1156.742188 333.105469 C 1156.742188 334.199219 1157.261719 335.105469 1158.425781 335.816406 L 1159.203125 336.265625 C 1159.65625 336.460938 1160.175781 336.589844 1160.691406 336.585938 L 1186.171875 336.566406 C 1186.6875 336.566406 1187.144531 336.4375 1187.660156 336.242188 L 1189.789062 335.078125 C 1190.445312 334.6875 1190.960938 334.105469 1191.277344 333.394531 L 1202.503906 303.019531 C 1203.148438 301.660156 1204.121094 300.949219 1205.417969 300.949219 L 1231.347656 300.925781 C 1232.449219 300.925781 1233.292969 301.375 1233.9375 302.28125 C 1234.320312 302.796875 1234.449219 303.441406 1234.449219 304.023438 C 1234.449219 304.410156 1234.449219 304.800781 1234.332031 305.1875 L 1224.523438 331.878906 C 1224.394531 332.269531 1224.324219 332.65625 1224.324219 333.042969 C 1224.324219 334.140625 1224.851562 335.046875 1226.011719 335.753906 L 1226.851562 336.207031 C 1227.238281 336.398438 1227.753906 336.527344 1228.28125 336.527344 L 1253.824219 336.503906 C 1254.339844 336.503906 1254.796875 336.375 1255.242188 336.179688 L 1257.441406 335.015625 C 1258.085938 334.628906 1258.601562 334.046875 1258.929688 333.335938 L 1289.707031 249.960938 C 1289.765625 249.574219 1289.835938 249.183594 1289.835938 248.796875 Z M 1289.835938 248.796875"/>
  <path fill="#ffffff" fill-opacity="1" fill-rule="nonzero" d="M 1373.300781 275.085938 L 1360.660156 309.273438 C 1359.875 310.957031 1358.714844 311.796875 1357.101562 311.796875 L 1332.65625 311.820312 C 1331.359375 311.820312 1330.328125 311.304688 1329.542969 310.207031 C 1329.097656 309.5625 1328.898438 308.785156 1328.898438 308.074219 C 1328.898438 307.625 1328.957031 307.105469 1329.085938 306.65625 L 1341.742188 272.464844 C 1342.515625 270.785156 1343.742188 269.941406 1345.289062 269.941406 L 1369.730469 269.917969 C 1371.03125 269.917969 1372.0625 270.433594 1372.84375 271.53125 C 1373.359375 272.175781 1373.558594 272.953125 1373.558594 273.664062 C 1373.558594 274.117188 1373.488281 274.632812 1373.300781 275.085938 Z M 1415.574219 245.648438 C 1414.988281 245.328125 1414.402344 245.199219 1413.761719 245.199219 L 1320.949219 245.28125 C 1320.363281 245.28125 1319.792969 245.414062 1319.136719 245.738281 L 1317.332031 246.707031 C 1316.558594 247.160156 1315.90625 247.804688 1315.519531 248.710938 L 1285.070312 331.308594 C 1284.941406 331.828125 1284.882812 332.277344 1284.882812 332.796875 C 1284.882812 334.085938 1285.527344 335.183594 1286.824219 336.023438 L 1286.953125 336.089844 C 1287.597656 336.410156 1288.183594 336.539062 1288.757812 336.539062 L 1381.566406 336.457031 C 1382.210938 336.457031 1382.796875 336.324219 1383.3125 336 L 1384.996094 335.160156 C 1385.898438 334.707031 1386.484375 333.996094 1386.800781 333.09375 L 1417.390625 250.367188 C 1417.574219 249.847656 1417.644531 249.394531 1417.644531 248.941406 C 1417.644531 247.585938 1416.933594 246.488281 1415.574219 245.648438 Z M 1415.574219 245.648438"/>
  <path fill="#ffffff" fill-opacity="1" fill-rule="nonzero" d="M 88.195312 149.945312 C 109.226562 156.507812 131.261719 151.796875 151.039062 163.421875 C 170.539062 174.886719 172.257812 194.476562 187.65625 208.574219 C 193.535156 213.957031 200.398438 217.109375 206.675781 221.722656 C 212.378906 225.917969 218.4375 232 218.058594 239.878906 L 218.679688 239.832031 C 226.125 234.289062 232.914062 227.328125 235.3125 217.871094 C 236.589844 212.84375 236.109375 207.550781 238.132812 202.855469 C 240.976562 196.265625 246.832031 191.910156 250.808594 186.179688 C 252.480469 183.769531 253.847656 181.144531 254.855469 178.367188 C 254.6875 178.203125 252.851562 179.660156 252.460938 179.886719 C 234.019531 190.496094 204.761719 177.449219 192.726562 161.398438 C 192.609375 161.242188 192.132812 160.492188 192.191406 160.4375 C 195.039062 161.851562 197.671875 163.726562 200.453125 165.269531 C 211.945312 171.632812 225.078125 176.578125 238.332031 173.824219 C 254.835938 170.390625 261.238281 155.207031 262.050781 139.195312 C 256.59375 147.933594 248.625 152.832031 238.679688 154.320312 C 204.074219 159.496094 188.953125 130.894531 158.457031 127.609375 C 154.179688 127.148438 149.800781 127.226562 145.527344 127.605469 L 149.53125 125.542969 C 162.101562 120.375 175.777344 118.5625 188.726562 123.46875 C 183.582031 118.078125 176.132812 114.058594 168.824219 113.023438 C 142.605469 109.328125 125.347656 128.824219 101.53125 134.09375 C 94.683594 135.609375 88.355469 135.347656 81.527344 136.292969 L 79.132812 137.257812 C 84.90625 138.496094 89.082031 143.757812 88.195312 149.945312 Z M 88.195312 149.945312"/>
  <path fill="#ffffff" fill-opacity="1" fill-rule="nonzero" d="M 164.0625 399.867188 C 157.167969 399.230469 157.335938 396.121094 154.828125 390.9375 C 153.59375 388.394531 148.257812 383.988281 146.054688 381.535156 C 137.027344 371.484375 130.101562 360.242188 122.28125 349.304688 C 115.507812 339.835938 107.785156 331.355469 97.660156 325.667969 L 106.0625 338.90625 C 101.472656 337.328125 96.539062 335.242188 91.722656 334.566406 C 91.433594 334.527344 90.804688 334.261719 90.863281 334.765625 L 106.429688 344.679688 L 106.59375 345.25 C 106.210938 345.292969 105.851562 345.429688 105.542969 345.675781 C 96.238281 353.097656 84.761719 360.894531 76.988281 369.933594 C 75.933594 371.164062 71.941406 376.003906 72.589844 377.515625 C 73.074219 378.644531 76.609375 380.261719 77.714844 381.050781 C 77.949219 381.21875 78.207031 381.003906 78.0625 381.664062 C 75.585938 382.3125 73.175781 382.03125 70.726562 382.21875 C 70.332031 382.246094 69.953125 382.003906 70.066406 382.625 C 71.863281 385.007812 73.765625 386.773438 76.21875 388.402344 C 76.78125 388.773438 77.488281 388.988281 77.988281 389.320312 C 78.246094 389.496094 78.464844 389.292969 78.328125 389.9375 C 72.777344 392.714844 66.917969 393.515625 60.996094 391.460938 C 58.308594 390.527344 57.742188 390.054688 56.71875 387.332031 C 55.84375 384.996094 53.453125 377.101562 53.507812 374.90625 C 53.578125 372.175781 56.847656 364.214844 58.015625 361.339844 C 64.605469 345.191406 74.832031 330.085938 87.519531 318.480469 C 88.246094 317.335938 87.625 315.429688 88.804688 314.4375 C 90.054688 313.386719 94.476562 315.304688 96.082031 315.714844 C 106.707031 318.425781 115.78125 319.269531 126.726562 318.21875 C 131.175781 317.789062 135.570312 316.695312 139.925781 315.734375 C 140.800781 320.214844 143.101562 324.957031 145.800781 328.558594 C 149.316406 333.253906 151.867188 336.253906 154.730469 341.660156 C 160.121094 351.832031 165.132812 364.445312 168.730469 375.453125 C 170.796875 381.769531 173.457031 388.808594 171.390625 395.453125 L 178.058594 392.425781 C 175.746094 397.710938 169.480469 400.367188 164.0625 399.867188 Z M 147.40625 298.792969 C 147.550781 298.023438 148.484375 297.15625 148.835938 296.40625 C 149.960938 293.988281 150.210938 289.28125 150.882812 286.386719 C 152.699219 278.589844 156.054688 271.03125 157.398438 263.054688 L 157.929688 263.0625 L 170.941406 273.332031 L 173.796875 273.273438 L 165.757812 296.261719 C 164.964844 297.644531 164.277344 299.402344 163.347656 300.667969 C 160.710938 304.253906 155.140625 304.253906 151.835938 306.964844 C 150.425781 308.125 149.898438 309.953125 148.460938 311.054688 C 148.148438 309.101562 147.820312 307.097656 147.660156 305.121094 C 147.558594 303.863281 147.226562 299.769531 147.40625 298.792969 Z M 206.597656 443.015625 C 205.242188 441.074219 201.195312 434.796875 200.75 432.792969 C 199.851562 428.777344 198.742188 428.203125 197.683594 424.929688 C 194.351562 414.605469 192.773438 404.226562 187.859375 394.277344 C 187.183594 392.90625 185.125 390.160156 184.820312 389.144531 C 184.558594 388.28125 184.605469 387.046875 184.351562 386.042969 C 182.988281 380.601562 178.597656 377.652344 174.726562 374.210938 C 170.335938 359.925781 165.070312 345.957031 158.847656 332.4375 C 158.785156 331.867188 158.878906 332.074219 159.246094 332.019531 C 160.40625 331.84375 161.609375 332.40625 162.953125 332.269531 C 166.613281 331.890625 167.222656 328.714844 169.035156 326.144531 C 170.777344 323.671875 173.335938 321.109375 174.699219 318.488281 C 176.039062 315.910156 176.28125 312.828125 177.570312 310.421875 C 179.589844 306.652344 183.746094 301.964844 186.277344 298.191406 C 190.105469 292.472656 194.105469 286.113281 197.136719 279.90625 C 198.355469 277.402344 201.261719 271.359375 200.980469 268.753906 C 200.695312 266.136719 197.328125 261.191406 195.660156 259.082031 C 194.847656 258.050781 191.007812 254.359375 190.71875 253.691406 C 190.566406 253.335938 191.757812 252.957031 190.476562 251.203125 C 186.136719 246.683594 181.253906 242.726562 177.003906 238.109375 C 171.871094 232.539062 167.730469 225.804688 160.84375 222.273438 C 155.441406 219.503906 149.238281 219.136719 143.410156 217.960938 C 140.320312 217.335938 136.085938 217.269531 135.019531 213.675781 C 133.90625 215.980469 133.34375 218.121094 130.5 218.375 C 125.65625 218.808594 119.996094 214.984375 115.421875 213.671875 C 115.890625 216.304688 118.1875 219.621094 117.804688 222.339844 C 117.621094 223.621094 113.398438 229.347656 112.347656 229.339844 C 109.363281 226.273438 106.785156 221.34375 107.1875 216.871094 C 107.414062 214.328125 109.652344 207.742188 108.34375 205.679688 C 107.96875 205.089844 106.398438 204.042969 105.714844 203.160156 C 103.722656 200.59375 102.21875 196.960938 103.8125 193.789062 C 104.933594 191.554688 107.835938 191.589844 109.296875 193.386719 C 110.070312 194.339844 110.230469 196.5625 111.761719 196.246094 C 114.351562 195.71875 113.292969 189.839844 114.8125 188.898438 C 115.433594 188.511719 118.203125 187.789062 119.105469 187.546875 C 123.082031 186.472656 133.066406 184.5625 136.6875 186.03125 C 139.691406 187.25 139.175781 191.503906 138.625 194.089844 C 143.023438 193.9375 153.429688 187.769531 153.574219 182.914062 C 153.660156 180.101562 149.324219 178.78125 147.222656 178.171875 C 143.453125 177.082031 139.585938 176.722656 135.683594 176.589844 C 135.140625 176.195312 133.792969 167.738281 131.949219 166.109375 C 129.667969 164.105469 122.292969 165.683594 119.378906 166.304688 C 116.839844 166.847656 107.585938 169.324219 106.097656 171.046875 C 104.132812 173.316406 104.683594 179.9375 103.996094 182.917969 C 99.660156 184.796875 89.046875 188.816406 88.289062 194.28125 C 87.46875 200.246094 97.386719 200.71875 101.148438 202.089844 C 101.78125 204.046875 105.027344 206.789062 105.273438 208.582031 C 105.414062 209.574219 104.441406 215.179688 103.777344 215.621094 C 103.222656 215.988281 102.132812 215.910156 101.484375 215.804688 C 98.941406 215.394531 95.027344 213.40625 92.28125 212.636719 C 88.667969 211.625 84.742188 211.441406 81.347656 210.425781 C 77.644531 209.316406 73.625 206.886719 69.890625 205.449219 C 67.289062 204.449219 64.652344 203.5625 61.941406 202.910156 C 61.445312 202.941406 60.164062 204.824219 59.566406 205.382812 C 57.734375 207.097656 55.148438 208.339844 52.761719 208.957031 L 56.339844 203.972656 C 61.058594 194.21875 61.09375 183.707031 65.171875 173.382812 C 65.914062 171.511719 69.125 164.351562 70.382812 163.324219 C 71.773438 162.1875 75.902344 160.792969 77.921875 159.539062 C 80.59375 157.875 87.113281 153.773438 82.6875 150.628906 C 86.265625 146.273438 81.148438 141.960938 77.191406 140.820312 C 75.132812 140.230469 73.796875 141.617188 72.160156 142.8125 C 66.503906 146.941406 63.390625 151.347656 60.210938 157.488281 C 51.648438 174.042969 39.527344 184.945312 35.558594 204.816406 C 35.15625 206.835938 34.554688 209.191406 35.296875 211.15625 C 35.992188 213.011719 42.875 219.082031 44.75 220.683594 C 55.1875 229.609375 67.96875 235.476562 77.078125 246 C 78.382812 262.726562 81.671875 279.132812 84.59375 295.589844 C 86.847656 298.9375 86.722656 304.667969 86.339844 308.703125 C 86.171875 310.484375 85.175781 311.007812 84.648438 312.472656 C 84.175781 313.785156 84.519531 314.902344 84.335938 315.578125 C 84.070312 316.566406 80.253906 319.617188 79.253906 320.683594 C 69.660156 330.910156 60.863281 344.96875 55.332031 358.007812 C 53.335938 362.722656 49.683594 371.28125 50.03125 376.273438 C 50.246094 379.3125 53.46875 390.710938 55.230469 392.957031 C 56.304688 394.324219 58.464844 394.699219 58.960938 395.445312 C 59.5625 396.359375 60.566406 400.355469 61.105469 401.777344 C 64.855469 411.734375 69.007812 421.527344 72.859375 431.4375 C 72.867188 432.734375 66.40625 440.125 65.082031 441.222656 C 60.699219 444.863281 51.125 445.890625 50.363281 452.75 C 50.066406 455.414062 50.472656 455.773438 52.691406 456.804688 C 59.730469 460.082031 69.554688 460.558594 76.515625 456.921875 C 78.300781 455.992188 82.492188 452.304688 83.820312 452.046875 C 85.28125 451.757812 87.242188 453.429688 89.042969 453.355469 C 90.597656 453.289062 96.65625 451.214844 97.457031 449.898438 C 98.171875 448.71875 97.664062 443.097656 97.410156 441.457031 C 97.039062 439.089844 95.316406 435.824219 95.140625 434.421875 C 95.054688 433.734375 95.492188 433.066406 95.300781 432.0625 C 95.03125 430.675781 93.476562 428.707031 93.078125 426.910156 C 92.898438 426.109375 92.789062 424.863281 92.695312 423.996094 C 91.628906 414.230469 92.164062 404.617188 90.21875 394.84375 C 89.980469 393.644531 89.007812 391.171875 88.980469 390.316406 C 88.941406 389.269531 90.125 388.097656 90.289062 387.015625 C 90.898438 382.988281 89.445312 378.066406 88.773438 374.097656 C 98.207031 366.507812 107.898438 358.992188 115.78125 349.660156 C 116.210938 349.640625 116.453125 350.074219 116.703125 350.363281 C 119.613281 353.679688 122.613281 358.878906 125.402344 362.601562 C 131.503906 370.738281 137.964844 378.902344 144.960938 386.226562 C 146.441406 387.777344 149.15625 389.707031 150.300781 391.1875 C 152.132812 393.570312 152.457031 397.445312 154.992188 400.128906 C 156.898438 402.144531 160.527344 402.847656 161.507812 403.871094 C 161.972656 404.355469 162.757812 406.257812 163.25 407.03125 C 166.636719 412.390625 170.355469 417.164062 174.296875 422.085938 C 176.558594 424.910156 179.3125 427.316406 181 430.597656 C 181.53125 431.628906 181.792969 433.066406 182.449219 434.0625 C 182.855469 434.675781 184.152344 435.535156 184.171875 435.652344 C 184.246094 436.132812 183.695312 436.960938 183.640625 437.566406 C 183.441406 439.707031 183.691406 445.855469 184.402344 447.765625 C 185.421875 450.519531 188.570312 450.585938 189.753906 452.15625 C 191.46875 454.425781 189.449219 456.796875 193.5625 458.699219 C 197.757812 460.636719 203.960938 460.902344 208.414062 459.898438 C 212.414062 458.992188 214.910156 458.496094 213.941406 453.621094 C 213.125 449.5 208.960938 446.402344 206.597656 443.015625 Z M 206.597656 443.015625"/>
  <path fill="#ffffff" fill-opacity="1" fill-rule="nonzero" d="M 236.183594 375.546875 C 221.894531 375.546875 210.3125 387.121094 210.3125 401.390625 C 210.3125 415.664062 221.894531 427.234375 236.183594 427.234375 C 250.46875 427.234375 262.050781 415.664062 262.050781 401.390625 C 262.050781 387.121094 250.46875 375.546875 236.183594 375.546875 Z M 236.183594 375.546875"/>
</svg>