<svg xmlns="http://www.w3.org/2000/svg" width="4276" height="674" viewBox="0 0 4276 674" version="1.1"><path d="" stroke="none" fill="#e83484" fill-rule="evenodd"/><path d="M 1566.958 1.075 C 1427.231 8.028, 1333.617 66.232, 1308.946 161.490 C 1301.111 191.743, 1299.265 224.128, 1303.614 255 C 1310.655 304.970, 1334.901 338.472, 1380.500 361.241 C 1407.597 374.771, 1435.126 382.874, 1497 395.531 C 1569.657 410.395, 1597.785 419.905, 1614.560 435.276 C 1631.938 451.199, 1634.753 480.166, 1620.935 500.859 C 1609.982 517.261, 1588.335 526.696, 1551.500 531.122 C 1536.753 532.894, 1477.539 532.937, 1462 531.187 C 1406.174 524.902, 1357.661 510.715, 1306.073 485.591 C 1298.140 481.728, 1295.714 481, 1290.773 481 C 1281.184 481, 1275.812 485.289, 1272.613 495.500 C 1268.341 509.133, 1252.146 591.955, 1251.291 604.539 C 1250.643 614.066, 1252.411 618.628, 1258.904 624.186 C 1267.984 631.958, 1333.215 652.422, 1379 661.863 C 1444.740 675.418, 1515.878 677.092, 1573.675 666.444 C 1655.425 651.382, 1717.407 614.533, 1752.498 560.130 C 1782.683 513.334, 1791.400 442.053, 1773.504 388.349 C 1766.223 366.499, 1755.798 349.770, 1739.011 333 C 1705.368 299.390, 1658.461 279.326, 1575.500 263.061 C 1533.290 254.786, 1514.799 249.416, 1494.500 239.540 C 1483.759 234.314, 1473.208 227.129, 1467.817 221.367 C 1458.868 211.803, 1454.668 198.353, 1456.881 186.343 C 1460.470 166.864, 1474.664 153.925, 1502 145.214 C 1523.810 138.263, 1558.322 135.080, 1591.748 136.936 C 1645.675 139.930, 1686.810 151.056, 1738.621 176.660 C 1756.055 185.276, 1758.260 186.114, 1763.621 186.161 C 1766.854 186.190, 1770.625 185.768, 1772 185.224 C 1775.474 183.850, 1780.010 179.139, 1781.691 175.159 C 1783.514 170.844, 1803 75.784, 1803 71.206 C 1803 60.544, 1795.773 51.710, 1782.500 46.147 C 1710.370 15.920, 1666.648 4.224, 1613.756 1.007 C 1595.890 -0.080, 1590.001 -0.071, 1566.958 1.075 M 265.500 16.132 C 172.498 25.034, 93.013 88.537, 72.084 170.655 C 69.044 182.586, 23.711 399.352, 6.868 482.500 C 0.800 512.457, 0.587 514.022, 0.544 529 C 0.512 540.352, 0.987 546.775, 2.321 553 C 15.455 614.325, 62.419 654.402, 126 658.545 L 136.500 659.229 185.906 423.864 C 213.079 294.414, 236.299 185.720, 237.506 182.321 C 243.045 166.724, 253.231 157.021, 270 151.370 C 275.230 149.607, 282.843 149.491, 425.074 149.008 L 574.647 148.500 578.164 146.090 C 580.098 144.765, 582.695 142.200, 583.935 140.390 C 586.394 136.802, 593.168 110.735, 602.432 69.211 C 610.522 32.954, 610.988 25.729, 605.602 20.106 C 604.116 18.555, 601.183 16.772, 599.084 16.143 C 594.476 14.763, 279.916 14.752, 265.500 16.132 M 933.500 16.568 C 899.362 21.781, 864.797 42.851, 848.581 68.333 C 846.772 71.175, 776.517 199.950, 692.458 354.500 C 544.401 626.715, 539.610 635.688, 539.224 641.500 C 538.888 646.549, 539.195 648.041, 541.162 650.913 C 542.448 652.790, 545.300 655.265, 547.500 656.413 C 551.446 658.472, 552.458 658.500, 622.500 658.500 L 693.500 658.500 699.323 655.641 C 703.014 653.828, 706.187 651.345, 707.990 648.856 C 709.554 646.696, 727.603 613.895, 748.099 575.965 L 785.363 507 905.016 507 L 1024.669 507 1021.379 481.250 C 1019.569 467.088, 1017.581 452.800, 1016.960 449.500 C 1012.346 424.986, 993.143 401.024, 968.911 389.543 C 952.915 381.964, 950.925 381.726, 899.750 381.244 C 874.587 381.007, 854 380.636, 854 380.419 C 854 380.203, 882.575 327.183, 917.500 262.598 C 952.633 197.628, 981 144.068, 981 142.703 C 981 141.345, 977.625 112.528, 973.500 78.666 C 969.375 44.803, 966 16.625, 966 16.048 C 966 14.543, 944.511 14.887, 933.500 16.568 M 985 15.372 C 985 15.576, 1001.611 156.321, 1021.914 328.137 C 1047.787 547.095, 1059.337 641.801, 1060.529 644.781 C 1062.939 650.804, 1069.877 656.614, 1076.330 658.013 C 1079.912 658.789, 1099.163 659.036, 1139 658.817 L 1196.500 658.500 1201.163 655.759 C 1203.728 654.251, 1206.783 651.470, 1207.952 649.578 C 1212.434 642.325, 1213.542 653.068, 1189.435 470 C 1159.664 243.921, 1129.901 19.240, 1129.460 17.250 L 1128.962 15 1056.981 15 C 1017.391 15, 985 15.167, 985 15.372 M 1848.843 15.975 C 1843.587 17.562, 1839.924 20.525, 1837.805 24.902 C 1835.875 28.891, 1835.762 29.972, 1836.707 35.424 C 1837.354 39.153, 1869.210 121.995, 1919.183 249.902 L 2000.606 458.304 1996.736 476.902 C 1987.586 520.875, 1970.894 603.881, 1967.967 619.969 C 1963.406 645.038, 1964.449 650.987, 1974.334 656.273 L 1978.500 658.500 2047.500 658.500 C 2116.226 658.500, 2116.516 658.491, 2120.500 656.347 C 2125.135 653.853, 2128.090 650.838, 2130.423 646.222 C 2131.335 644.419, 2140.350 601.349, 2150.457 550.511 L 2168.835 458.079 2086.423 248.789 C 2041.097 133.680, 2002.787 36.579, 2001.291 33.009 C 1999.682 29.171, 1996.856 24.803, 1994.377 22.325 C 1986.916 14.864, 1988.274 14.988, 1915.568 15.086 C 1880.331 15.133, 1850.304 15.533, 1848.843 15.975 M 2334.718 16.092 C 2329.706 17.272, 2325.800 19.359, 2321.441 23.186 C 2316.495 27.528, 2175.989 200.935, 2168.237 212.263 C 2157.382 228.127, 2149.802 245.663, 2145.980 263.756 C 2140.522 289.596, 2143.332 330.602, 2152.586 360.157 C 2155.965 370.947, 2182.138 437, 2183.035 437 C 2183.752 437, 2493.723 48.289, 2499.183 40.543 C 2501.520 37.227, 2502.447 34.657, 2502.788 30.546 C 2503.231 25.200, 2503.114 24.879, 2499.351 21.116 C 2497.143 18.908, 2493.731 16.741, 2491.477 16.115 C 2486.592 14.759, 2340.471 14.737, 2334.718 16.092 M 2667.051 16.148 C 2604.511 22.679, 2546.187 58.287, 2510.871 111.500 C 2498.695 129.846, 2487.721 154.334, 2482.637 174.500 C 2478.745 189.942, 2432.686 408.820, 2419.086 476.500 C 2410.195 520.753, 2408.695 530.847, 2409.503 541 C 2412.580 579.657, 2429.500 611.067, 2459.049 632.976 C 2479.059 647.812, 2505.378 656.620, 2535.640 658.605 C 2545.023 659.221, 2545.822 659.130, 2546.347 657.385 C 2546.659 656.348, 2569.210 549.075, 2596.460 419 C 2641.791 202.624, 2646.304 181.893, 2649.500 175.368 C 2655.836 162.431, 2670.094 151.703, 2684.434 149.084 C 2692.104 147.683, 2791.246 147.641, 2807 149.033 C 2848.897 152.733, 2866.304 168.280, 2866.304 202 C 2866.304 221.620, 2860.715 235.530, 2847.603 248.542 C 2840.841 255.254, 2837.763 257.440, 2829 261.757 C 2807.678 272.261, 2796.710 274, 2745.500 274.997 C 2702.219 275.839, 2697.835 276.332, 2683.216 281.992 C 2658.778 291.454, 2641.506 309.928, 2634.089 334.535 C 2631.494 343.143, 2622.097 389.764, 2622.813 390.479 C 2623.099 390.766, 2653.201 391, 2689.706 391 C 2730.300 391, 2759.815 391.417, 2765.697 392.072 C 2794.624 395.298, 2813.453 405.206, 2821.005 421.175 C 2825.252 430.156, 2826.330 436.736, 2825.726 450 C 2823.945 489.134, 2798.195 514.955, 2752.374 523.555 C 2745.459 524.852, 2733.896 525.383, 2700 525.957 C 2652.267 526.765, 2651.734 526.828, 2635.752 533.553 C 2615.788 541.953, 2595.916 560.489, 2586.027 579.933 C 2581.277 589.272, 2578.866 597.823, 2572.979 626.193 C 2569.635 642.312, 2566.655 656.321, 2566.358 657.325 C 2565.837 659.085, 2569.028 659.136, 2655.159 658.734 C 2751.411 658.285, 2754.381 658.145, 2788.622 652.462 C 2854.807 641.478, 2906.562 617.106, 2942.201 580.140 C 2960.477 561.185, 2972.641 541.398, 2980.403 518 C 2991.474 484.630, 2992.752 446.030, 2983.848 414 C 2973.076 375.253, 2943.071 344.848, 2900.500 329.539 C 2898.972 328.989, 2901.216 327.768, 2910 324.368 C 2941.058 312.347, 2963.940 298.178, 2983.144 279.077 C 3001.099 261.218, 3011.072 245.443, 3018.419 223.282 C 3023.807 207.029, 3025.156 198.087, 3025.706 175 C 3026.155 156.172, 3025.956 151.962, 3024.110 141.129 C 3019.006 111.184, 3007.695 88.731, 2987.501 68.461 C 2957.371 38.216, 2911.174 20.542, 2850.500 16.046 C 2833.550 14.790, 2679.234 14.876, 2667.051 16.148 M 3342.500 15.649 C 3340.850 15.842, 3335.225 16.479, 3330 17.066 C 3297.214 20.746, 3258.083 35.075, 3230 53.684 C 3187.275 81.995, 3156.212 124.069, 3144.127 170 C 3137.696 194.438, 3077.141 487.214, 3072.476 516.422 C 3068.442 541.675, 3077.361 576.159, 3094.688 602.306 C 3100.840 611.589, 3114.443 625.778, 3124.085 632.970 C 3144.419 648.136, 3172.494 657.668, 3198.614 658.275 L 3208.292 658.500 3258.123 421.564 C 3313.381 158.828, 3309.256 175.953, 3320.014 164.579 C 3325.331 158.957, 3335.237 153.050, 3343.052 150.842 C 3346.493 149.870, 3381.398 149.463, 3497.157 149.043 L 3646.815 148.500 3650.657 145.411 C 3652.771 143.711, 3655.469 140.561, 3656.654 138.411 C 3660.874 130.747, 3680.982 41.995, 3680.989 31 C 3680.994 23.938, 3678.406 19.541, 3672.729 16.964 C 3668.611 15.094, 3664.264 15.047, 3507 15.172 C 3418.175 15.242, 3344.150 15.457, 3342.500 15.649 M 3807.342 16.479 C 3797.365 18.290, 3790.892 20.539, 3780.798 25.702 C 3757.464 37.637, 3738.891 58.577, 3731.084 81.750 C 3729.223 87.275, 3715 152.677, 3715 155.710 C 3715 157.415, 4236.178 157.639, 4240.685 155.936 C 4244.138 154.632, 4248.696 150.424, 4250.595 146.788 C 4252.168 143.778, 4269.436 66.584, 4273.517 44.321 C 4275.614 32.881, 4275.914 29.396, 4275.074 26.274 C 4273.818 21.611, 4269.585 17.315, 4264.931 15.980 C 4262.740 15.352, 4181.305 15.032, 4038.007 15.090 C 3859.360 15.162, 3813.063 15.441, 3807.342 16.479 M 3977.589 182.100 C 3935.074 186.582, 3895.669 208.297, 3882.506 234.500 C 3879.266 240.949, 3875.800 256.680, 3838.472 434.379 C 3816.188 540.463, 3797.263 631.272, 3796.416 636.178 C 3795.246 642.960, 3795.137 645.884, 3795.962 648.383 C 3797.303 652.447, 3801.407 656.363, 3805.899 657.864 C 3810.544 659.416, 3935.749 659.462, 3942.967 657.914 C 3950.163 656.370, 3956.868 651.537, 3960.685 645.142 C 3964.411 638.900, 3965.585 634.179, 3977.404 577.913 C 3989.015 522.637, 4059 182.535, 4059 181.384 C 4059 180.633, 3985.363 181.280, 3977.589 182.100 M 309.874 259.037 C 283.883 262.073, 257.923 277.369, 241.348 299.413 C 236.302 306.124, 229.184 319.730, 226.654 327.500 C 225.043 332.448, 213 389.021, 213 391.641 C 213 392.779, 232.684 393, 333.951 393 C 417.408 393, 456.476 392.662, 459.980 391.911 C 462.773 391.312, 466.415 389.680, 468.073 388.285 C 474.013 383.287, 474.195 382.646, 486.876 322 C 495.146 282.448, 496.422 274.282, 495.099 269.367 C 493.702 264.181, 489.584 260.365, 484 259.083 C 478.703 257.866, 320.255 257.824, 309.874 259.037 M 3381.874 259.023 C 3345.493 263.347, 3312.697 289.313, 3299.584 324.177 C 3297.275 330.314, 3285 386.613, 3285 391.063 C 3285 392.969, 3286.967 393, 3406.250 392.976 C 3485.962 392.959, 3529.035 392.597, 3531.980 391.919 C 3537.867 390.562, 3542.320 387.049, 3544.836 381.777 C 3546.716 377.838, 3556.497 333.839, 3564.016 295.500 C 3567.636 277.041, 3567.773 267.616, 3564.474 263.971 C 3559.277 258.228, 3563.928 258.512, 3472.500 258.368 C 3426.300 258.295, 3385.518 258.590, 3381.874 259.023 M 259.472 517.002 C 221.351 521.094, 185.628 550.230, 172.436 587.990 C 170.276 594.172, 157.023 654.090, 157.006 657.750 C 156.998 659.452, 473.347 659.584, 479.500 657.884 C 485.273 656.289, 490.294 650.596, 492.286 643.387 C 496.021 629.873, 515 535.903, 515 530.928 C 515 526.229, 512.223 521.302, 508.144 518.766 L 504.500 516.500 385.500 516.374 C 320.050 516.305, 263.337 516.588, 259.472 517.002 M 3334.500 516.667 C 3299.155 519.586, 3266.124 542.584, 3249.281 576 C 3244.110 586.259, 3241.517 595.463, 3235.053 626.500 C 3231.731 642.450, 3228.826 656.293, 3228.597 657.262 C 3228.201 658.940, 3235.898 659.011, 3389.841 658.762 L 3551.500 658.500 3555.259 656.163 C 3562.398 651.724, 3563.134 649.412, 3573.961 597.339 C 3586.689 536.121, 3587.379 532.122, 3586.063 527.236 C 3584.700 522.173, 3580.539 518.355, 3575 517.083 C 3570.902 516.141, 3345.577 515.752, 3334.500 516.667" stroke="none" fill="#e43484" fill-rule="evenodd"/></svg>